<svg width="173" height="40" viewBox="0 0 173 40" fill="none" xmlns="http://www.w3.org/2000/svg">
<rect width="40" height="40" rx="7.01754" fill="#6443F9"/>
<path d="M19.9995 4.21094C20.6792 4.21094 21.3314 4.48188 21.812 4.96387C22.2926 5.44589 22.563 6.09957 22.563 6.78125C22.5617 7.33299 22.3831 7.86996 22.0532 8.31152C21.7234 8.75307 21.2595 9.07614 20.7319 9.23242V13.0234H28.0552C29.2203 13.0235 30.3377 13.4882 31.1616 14.3145C31.9854 15.1407 32.4486 16.2612 32.4487 17.4297V18.2461H33.0659C33.6485 18.2461 34.2076 18.4784 34.6196 18.8916C35.0315 19.3048 35.2632 19.8649 35.2632 20.4492V25.5898C35.2632 26.1741 35.0315 26.7343 34.6196 27.1475C34.2076 27.5606 33.6485 27.793 33.0659 27.793H32.4487V31.3838C32.4487 32.5523 31.9854 33.6727 31.1616 34.499C30.3377 35.3253 29.2203 35.79 28.0552 35.79H11.9448C10.7797 35.79 9.66228 35.3253 8.83838 34.499C8.01455 33.6727 7.55134 32.5523 7.55127 31.3838V27.793H6.93408C6.35146 27.793 5.79235 27.5606 5.38037 27.1475C4.96848 26.7343 4.73682 26.1741 4.73682 25.5898V20.4492C4.73682 19.8649 4.96843 19.3048 5.38037 18.8916C5.79235 18.4784 6.35146 18.2461 6.93408 18.2461H7.55127V17.4297C7.55136 16.2612 8.01454 15.1407 8.83838 14.3145C9.66228 13.4882 10.7797 13.0235 11.9448 13.0234H19.2681V9.23242C18.7405 9.07615 18.2766 8.75305 17.9468 8.31152C17.6169 7.86996 17.4383 7.33299 17.437 6.78125C17.437 6.09957 17.7074 5.44589 18.188 4.96387C18.6685 4.482 19.32 4.21106 19.9995 4.21094ZM15.9409 28.2031C15.769 28.1215 15.5722 28.1097 15.3921 28.1709C15.2119 28.2322 15.062 28.3615 14.9751 28.5312C14.8882 28.701 14.871 28.8984 14.9263 29.0811C14.9816 29.2636 15.1056 29.4172 15.272 29.5098C16.718 30.2551 18.3528 30.6493 19.9995 30.6494C21.6464 30.6494 23.2818 30.2552 24.728 29.5098C24.8899 29.4148 25.0095 29.2616 25.062 29.0811C25.1145 28.9005 25.0959 28.7064 25.0103 28.5391C24.9246 28.3717 24.778 28.2432 24.6011 28.1807C24.4242 28.1183 24.2303 28.1266 24.0591 28.2031C21.5438 29.5001 18.4562 29.5001 15.9409 28.2031ZM15.2407 18.8984C14.5611 18.8984 13.9088 19.1695 13.4282 19.6514C12.9477 20.1333 12.6774 20.7872 12.6772 21.4688C12.6772 22.1505 12.9476 22.8051 13.4282 23.2871C13.9088 23.769 14.5611 24.04 15.2407 24.04C15.9201 24.0399 16.5717 23.7688 17.0522 23.2871C17.5329 22.8051 17.8032 22.1505 17.8032 21.4688C17.8031 20.7872 17.5328 20.1333 17.0522 19.6514C16.5717 19.1696 15.9201 18.8986 15.2407 18.8984ZM24.7593 18.8984C24.4229 18.8985 24.0896 18.9656 23.7788 19.0947C23.4681 19.2238 23.1856 19.4129 22.9478 19.6514C22.7098 19.89 22.5209 20.1736 22.3921 20.4854C22.2633 20.7971 22.1968 21.1314 22.1968 21.4688C22.1968 21.8063 22.2633 22.1413 22.3921 22.4531C22.5209 22.7649 22.7098 23.0485 22.9478 23.2871C23.1856 23.5256 23.4681 23.7146 23.7788 23.8438C24.0896 23.9729 24.4229 24.04 24.7593 24.04C25.4389 24.04 26.0912 23.769 26.5718 23.2871C27.0524 22.8051 27.3228 22.1505 27.3228 21.4688C27.3226 20.7872 27.0523 20.1333 26.5718 19.6514C26.0912 19.1695 25.4389 18.8984 24.7593 18.8984Z" fill="white"/>
<path d="M165.474 32.5698C160.554 32.5698 157.156 29.0305 157.156 24.1109C157.156 19.1914 160.554 15.6875 165.474 15.6875C168.341 15.6875 170.676 16.9616 172.092 18.979L168.942 21.4211C168.376 20.7486 167.385 19.8638 165.58 19.8638C163.138 19.8638 161.474 21.6689 161.474 24.1109C161.474 26.553 163.138 28.3581 165.58 28.3581C167.385 28.3581 168.341 27.6148 168.942 26.8716L172.092 29.2429C170.676 31.2956 168.341 32.5698 165.474 32.5698Z" fill="#08002B"/>
<path d="M149.191 32.252V16.9714C149.191 16.4191 149.639 15.9714 150.191 15.9714H152.649C153.202 15.9714 153.65 16.4204 153.649 16.9735L153.615 32.252H149.191Z" fill="#08002B"/>
<path d="M151.563 8.75195C151.681 8.75195 151.786 8.82523 151.827 8.9356L152.02 9.45837C152.283 10.168 152.389 10.439 152.586 10.6354C152.782 10.8317 153.053 10.9384 153.763 11.201L154.285 11.3944C154.396 11.4353 154.469 11.5405 154.469 11.6582C154.469 11.7759 154.396 11.8811 154.285 11.922L153.763 12.1154C153.053 12.378 152.782 12.4847 152.586 12.681C152.389 12.8774 152.283 13.1484 152.02 13.858L151.827 14.3808C151.786 14.4912 151.681 14.5645 151.563 14.5645C151.445 14.5645 151.34 14.4912 151.299 14.3808L151.106 13.858C150.843 13.1484 150.736 12.8774 150.54 12.681C150.344 12.4847 150.073 12.378 149.363 12.1154L148.84 11.922C148.73 11.8811 148.657 11.7759 148.657 11.6582C148.657 11.5405 148.73 11.4353 148.84 11.3944L149.363 11.201C150.073 10.9384 150.344 10.8317 150.54 10.6354C150.736 10.439 150.843 10.168 151.106 9.45837L151.299 8.9356C151.34 8.82523 151.445 8.75195 151.563 8.75195Z" fill="#6443F9"/>
<path d="M148.15 7.25195C148.268 7.25195 148.373 7.32523 148.414 7.4356L148.497 7.65964C148.615 7.97756 148.649 8.05276 148.702 8.1062C148.756 8.15965 148.831 8.19389 149.149 8.31153L149.373 8.39443C149.483 8.43527 149.557 8.54052 149.557 8.6582C149.557 8.77589 149.483 8.88113 149.373 8.92197L149.149 9.00488C148.831 9.12252 148.756 9.15675 148.702 9.2102C148.649 9.26365 148.615 9.33885 148.497 9.65676L148.414 9.88081C148.373 9.99118 148.268 10.0645 148.15 10.0645C148.033 10.0645 147.927 9.99118 147.887 9.88081L147.804 9.65676C147.686 9.33885 147.652 9.26365 147.598 9.2102C147.545 9.15675 147.47 9.12252 147.152 9.00488L146.928 8.92197C146.817 8.88113 146.744 8.77589 146.744 8.6582C146.744 8.54052 146.817 8.43527 146.928 8.39443L147.152 8.31153C147.47 8.19389 147.545 8.15965 147.598 8.1062C147.652 8.05276 147.686 7.97756 147.804 7.65964L147.887 7.4356C147.927 7.32523 148.033 7.25195 148.15 7.25195Z" fill="#6443F9"/>
<path d="M142.756 32.2514C139.5 32.2514 137.978 30.5526 137.978 27.5442V19.3331H135.855V15.9708H137.978V11.9805C137.978 11.4282 138.426 10.9805 138.978 10.9805H141.402C141.955 10.9805 142.402 11.4282 142.402 11.9805V15.9708H145.871V19.3331H142.402V26.8364C142.402 28.7476 143.57 28.8183 144.597 28.8183H145.694V32.2514H142.756Z" fill="#08002B"/>
<path d="M117.976 32.251V16.9704C117.976 16.4181 118.424 15.9704 118.976 15.9704H121.4C121.952 15.9704 122.4 16.4181 122.4 16.9704V17.5277C123.639 16.1828 125.373 15.7227 126.966 15.7227C129.903 15.7227 133.301 17.3153 133.301 22.3057V32.251H128.877V22.9781C128.877 20.1113 126.86 19.4389 125.621 19.4389C124.347 19.4389 122.4 20.1113 122.4 22.9781V32.251H117.976Z" fill="#08002B"/>
<path d="M107.027 32.6054C102.036 32.6054 98.7449 28.96 98.7449 24.1112C98.7449 19.2624 101.93 15.6523 106.85 15.6523C111.699 15.6523 114.672 19.2624 114.672 24.1112V25.3145H102.992C103.417 27.5089 105.009 28.8184 107.027 28.8184C109.186 28.8184 110.318 27.8274 110.885 27.0842L113.893 29.2785C112.477 31.3313 110 32.6054 107.027 32.6054ZM103.063 22.5185H110.531C110.141 20.6073 108.938 19.1562 106.85 19.1562C104.832 19.1562 103.487 20.4657 103.063 22.5185Z" fill="#08002B"/>
<path d="M89.7135 32.7472C85.7141 32.7472 83.2366 30.8006 82.4226 28.8186L85.431 26.8013C85.8203 27.7215 87.7315 29.208 89.7843 29.208C91.3062 29.208 92.1202 28.7479 92.1202 27.6861C92.1202 26.3765 90.032 26.0226 88.7579 25.5979C87.4838 25.1732 83.1305 24.1468 83.1305 20.5722C83.1305 17.1037 86.1742 15.6172 89.6781 15.6172C93.2174 15.6172 95.5887 17.2806 96.4027 19.0503L93.5359 20.8907C93.0404 20.1121 91.2708 18.9795 89.5365 18.9795C88.0854 18.9795 87.4484 19.5458 87.4484 20.3598C87.4484 21.6693 89.4657 22.0233 90.7399 22.448C92.014 22.8727 96.4381 24.0052 96.4381 27.5091C96.4381 30.9422 93.8898 32.7472 89.7135 32.7472Z" fill="#08002B"/>
<path d="M77.0415 13.5654C75.8381 13.5654 74.5994 12.6451 74.5994 11.0879C74.5994 9.56598 75.8381 8.75195 77.0415 8.75195C78.2094 8.75195 79.4835 9.56598 79.4835 11.0879C79.4835 12.6451 78.2094 13.5654 77.0415 13.5654ZM74.8117 32.2527V15.972H79.2712L79.2358 32.2527H74.8117Z" fill="#08002B"/>
<path d="M50 32.2513L59.0903 9.86979C59.2435 9.49273 59.6099 9.24609 60.0168 9.24609H62.138C62.5454 9.24609 62.9122 9.49331 63.065 9.87102L72.1204 32.2513H67.2716L65.7851 28.4643H56.3353L54.8488 32.2513H50ZM57.9987 24.288H64.157L61.0779 16.4662L57.9987 24.288Z" fill="#08002B"/>
</svg>
