<svg width="154" height="33" viewBox="0 0 154 33" fill="none" xmlns="http://www.w3.org/2000/svg">
<path d="M45.2714 26V6.47646H52.7452C54.1561 6.47646 55.3287 6.69889 56.2629 7.14376C57.2035 7.58228 57.9057 8.18286 58.3697 8.9455C58.84 9.70814 59.0751 10.5725 59.0751 11.5385C59.0751 12.3329 58.9226 13.0129 58.6175 13.5785C58.3125 14.1378 57.9026 14.5922 57.3878 14.9417C56.873 15.2913 56.2978 15.5423 55.6623 15.6948V15.8855C56.355 15.9236 57.0192 16.1365 57.6547 16.5242C58.2966 16.9055 58.8209 17.4457 59.2276 18.1448C59.6344 18.8439 59.8378 19.6892 59.8378 20.6806C59.8378 21.6911 59.5931 22.5999 59.1037 23.407C58.6144 24.2078 57.8771 24.8402 56.8921 25.3041C55.907 25.768 54.6677 26 53.1742 26H45.2714ZM48.8081 23.0448H52.6118C53.8955 23.0448 54.8202 22.8001 55.3859 22.3107C55.9578 21.815 56.2438 21.1795 56.2438 20.4041C56.2438 19.8258 56.1008 19.3047 55.8148 18.8407C55.5289 18.3704 55.1221 18.0018 54.5946 17.7349C54.0671 17.4616 53.438 17.325 52.7071 17.325H48.8081V23.0448ZM48.8081 14.7797H52.3067C52.9168 14.7797 53.4666 14.6685 53.9559 14.446C54.4453 14.2172 54.8298 13.8963 55.1094 13.4832C55.3954 13.0637 55.5384 12.568 55.5384 11.9961C55.5384 11.2398 55.2715 10.6169 54.7376 10.1276C54.2101 9.63823 53.4252 9.39355 52.383 9.39355H48.8081V14.7797ZM68.6122 26.286C67.1823 26.286 65.943 25.9714 64.8943 25.3422C63.8457 24.713 63.0322 23.8328 62.4539 22.7016C61.8819 21.5703 61.5959 20.2484 61.5959 18.7359C61.5959 17.2233 61.8819 15.8982 62.4539 14.7606C63.0322 13.623 63.8457 12.7396 64.8943 12.1104C65.943 11.4813 67.1823 11.1667 68.6122 11.1667C70.0421 11.1667 71.2814 11.4813 72.3301 12.1104C73.3787 12.7396 74.189 13.623 74.761 14.7606C75.3393 15.8982 75.6285 17.2233 75.6285 18.7359C75.6285 20.2484 75.3393 21.5703 74.761 22.7016C74.189 23.8328 73.3787 24.713 72.3301 25.3422C71.2814 25.9714 70.0421 26.286 68.6122 26.286ZM68.6313 23.5214C69.4066 23.5214 70.0549 23.3085 70.576 22.8827C71.0971 22.4506 71.4848 21.8722 71.739 21.1477C71.9996 20.4232 72.1299 19.6161 72.1299 18.7263C72.1299 17.8302 71.9996 17.0199 71.739 16.2954C71.4848 15.5646 71.0971 14.9831 70.576 14.5509C70.0549 14.1187 69.4066 13.9026 68.6313 13.9026C67.8368 13.9026 67.1759 14.1187 66.6484 14.5509C66.1273 14.9831 65.7364 15.5646 65.4758 16.2954C65.2216 17.0199 65.0945 17.8302 65.0945 18.7263C65.0945 19.6161 65.2216 20.4232 65.4758 21.1477C65.7364 21.8722 66.1273 22.4506 66.6484 22.8827C67.1759 23.3085 67.8368 23.5214 68.6313 23.5214ZM84.4077 26.286C82.9777 26.286 81.7384 25.9714 80.6898 25.3422C79.6412 24.713 78.8277 23.8328 78.2494 22.7016C77.6774 21.5703 77.3914 20.2484 77.3914 18.7359C77.3914 17.2233 77.6774 15.8982 78.2494 14.7606C78.8277 13.623 79.6412 12.7396 80.6898 12.1104C81.7384 11.4813 82.9777 11.1667 84.4077 11.1667C85.8376 11.1667 87.0769 11.4813 88.1255 12.1104C89.1742 12.7396 89.9845 13.623 90.5565 14.7606C91.1348 15.8982 91.424 17.2233 91.424 18.7359C91.424 20.2484 91.1348 21.5703 90.5565 22.7016C89.9845 23.8328 89.1742 24.713 88.1255 25.3422C87.0769 25.9714 85.8376 26.286 84.4077 26.286ZM84.4267 23.5214C85.2021 23.5214 85.8503 23.3085 86.3715 22.8827C86.8926 22.4506 87.2803 21.8722 87.5345 21.1477C87.7951 20.4232 87.9253 19.6161 87.9253 18.7263C87.9253 17.8302 87.7951 17.0199 87.5345 16.2954C87.2803 15.5646 86.8926 14.9831 86.3715 14.5509C85.8503 14.1187 85.2021 13.9026 84.4267 13.9026C83.6323 13.9026 82.9714 14.1187 82.4439 14.5509C81.9227 14.9831 81.5319 15.5646 81.2713 16.2954C81.0171 17.0199 80.89 17.8302 80.89 18.7263C80.89 19.6161 81.0171 20.4232 81.2713 21.1477C81.5319 21.8722 81.9227 22.4506 82.4439 22.8827C82.9714 23.3085 83.6323 23.5214 84.4267 23.5214ZM96.9619 21.4051L96.9524 17.2392H97.5053L102.768 11.3573H106.8L100.327 18.5643H99.6121L96.9619 21.4051ZM93.8161 26V6.47646H97.267V26H93.8161ZM103.006 26L98.2394 19.3364L100.565 16.9055L107.134 26H103.006ZM115.875 11.3573V14.0266H107.457V11.3573H115.875ZM109.535 7.84921H112.986V21.5958C112.986 22.0597 113.056 22.4156 113.196 22.6635C113.342 22.905 113.533 23.0702 113.768 23.1592C114.003 23.2481 114.264 23.2926 114.55 23.2926C114.766 23.2926 114.963 23.2767 115.141 23.245C115.325 23.2132 115.465 23.1846 115.56 23.1592L116.142 25.857C115.957 25.9206 115.694 25.9905 115.35 26.0667C115.014 26.143 114.6 26.1875 114.111 26.2002C113.247 26.2256 112.468 26.0953 111.776 25.8093C111.083 25.517 110.533 25.0658 110.126 24.4557C109.726 23.8455 109.529 23.0829 109.535 22.1677V7.84921ZM118.224 26V11.3573H121.675V26H118.224ZM119.959 9.27915C119.412 9.27915 118.942 9.09803 118.548 8.73577C118.154 8.36716 117.957 7.92547 117.957 7.41069C117.957 6.88955 118.154 6.44786 118.548 6.0856C118.942 5.717 119.412 5.53269 119.959 5.53269C120.512 5.53269 120.982 5.717 121.37 6.0856C121.764 6.44786 121.961 6.88955 121.961 7.41069C121.961 7.92547 121.764 8.36716 121.37 8.73577C120.982 9.09803 120.512 9.27915 119.959 9.27915ZM131.074 26.286C129.612 26.286 128.357 25.965 127.308 25.3232C126.266 24.6813 125.462 23.7947 124.896 22.6635C124.337 21.5259 124.057 20.2167 124.057 18.7359C124.057 17.2487 124.343 15.9364 124.915 14.7987C125.487 13.6548 126.295 12.765 127.337 12.1295C128.385 11.4876 129.625 11.1667 131.055 11.1667C132.243 11.1667 133.295 11.3859 134.21 11.8245C135.132 12.2566 135.866 12.8699 136.412 13.6643C136.959 14.4524 137.27 15.3739 137.346 16.4289H134.048C133.915 15.7234 133.597 15.1356 133.095 14.6653C132.599 14.1886 131.935 13.9503 131.102 13.9503C130.397 13.9503 129.777 14.141 129.243 14.5223C128.71 14.8973 128.293 15.4375 127.995 16.1429C127.702 16.8483 127.556 17.6936 127.556 18.6787C127.556 19.6765 127.702 20.5344 127.995 21.2526C128.287 21.9644 128.697 22.5141 129.224 22.9018C129.758 23.2831 130.384 23.4738 131.102 23.4738C131.611 23.4738 132.065 23.3784 132.466 23.1878C132.872 22.9908 133.212 22.7079 133.486 22.3393C133.759 21.9707 133.946 21.5227 134.048 20.9952H137.346C137.264 22.0311 136.959 22.9494 136.431 23.7502C135.904 24.5446 135.186 25.1675 134.277 25.6187C133.368 26.0636 132.3 26.286 131.074 26.286ZM151.216 15.2277L148.07 15.5709C147.981 15.2532 147.826 14.9545 147.603 14.6748C147.387 14.3952 147.095 14.1696 146.726 13.998C146.358 13.8264 145.906 13.7406 145.373 13.7406C144.654 13.7406 144.051 13.8963 143.561 14.2077C143.078 14.5191 142.84 14.9227 142.846 15.4184C142.84 15.8442 142.996 16.1906 143.313 16.4575C143.638 16.7244 144.171 16.9437 144.915 17.1153L147.413 17.6491C148.798 17.9478 149.828 18.4213 150.501 19.0695C151.181 19.7178 151.524 20.5662 151.531 21.6148C151.524 22.5364 151.254 23.3498 150.721 24.0553C150.193 24.7544 149.459 25.3009 148.518 25.6949C147.578 26.089 146.497 26.286 145.277 26.286C143.485 26.286 142.042 25.911 140.949 25.1611C139.856 24.4048 139.205 23.353 138.995 22.0057L142.36 21.6816C142.513 22.3425 142.837 22.8414 143.332 23.1782C143.828 23.5151 144.473 23.6835 145.268 23.6835C146.087 23.6835 146.745 23.5151 147.241 23.1782C147.743 22.8414 147.994 22.4251 147.994 21.9294C147.994 21.51 147.832 21.1636 147.508 20.8903C147.19 20.617 146.694 20.4073 146.021 20.2611L143.523 19.7368C142.119 19.4445 141.08 18.952 140.406 18.2592C139.732 17.5601 139.399 16.6767 139.405 15.6091C139.399 14.7066 139.643 13.9249 140.139 13.2639C140.641 12.5966 141.337 12.0818 142.227 11.7196C143.123 11.351 144.155 11.1667 145.325 11.1667C147.041 11.1667 148.391 11.5321 149.376 12.263C150.368 12.9938 150.981 13.9821 151.216 15.2277Z" fill="#1F1F33"/>
<path d="M12.7452 20.7918L12.5417 23.0943C9.21504 21.2602 7.65892 17.1965 9.0521 13.5507C10.5762 9.56235 15.0626 7.55684 19.051 9.08098C22.6967 10.4742 24.6851 14.343 23.8359 18.0439L21.9825 16.6593C22.1286 14.2388 20.707 11.8956 18.3235 10.9847C15.384 9.86146 12.0792 11.3388 10.9559 14.2783C10.045 16.6618 10.8449 19.2845 12.7452 20.7918Z" fill="#22B855"/>
<path d="M16.5804 21.9907L17.9382 23.8613C14.2246 24.6613 10.3832 22.6172 9.0411 18.9523C7.57283 14.943 9.64084 10.4852 13.6501 9.01691C17.315 7.67479 21.3546 9.28824 23.1433 12.6376L20.8362 12.8096C19.3576 10.8877 16.747 10.0532 14.351 10.9307C11.3962 12.0128 9.87274 15.2967 10.9548 18.2515C11.8323 20.6475 14.1573 22.101 16.5804 21.9907Z" fill="#22B855"/>
<path d="M16.3031 0C25.2929 0 32.6074 7.31452 32.6074 16.3043C32.6074 16.8709 32.5789 17.4293 32.5218 17.9816C32.1733 17.6718 31.7535 17.4375 31.2807 17.303L30.547 17.0951C30.5612 16.8322 30.5694 16.5693 30.5694 16.3043C30.5694 8.43748 24.1699 2.03804 16.3031 2.03804C8.43628 2.03804 2.03683 8.43748 2.03683 16.3043C2.03683 24.1711 8.43628 30.5706 16.3031 30.5706C16.5681 30.5706 16.831 30.5624 17.0939 30.5482L17.3017 31.2819C17.4363 31.7547 17.6706 32.1745 17.9763 32.523C17.4261 32.5801 16.8676 32.6086 16.3031 32.6086C7.31332 32.6086 -0.0012064 25.2941 -0.0012064 16.3043C-0.0012064 7.31452 7.31332 0 16.3031 0Z" fill="#22B855"/>
<path d="M15.7634 15.7664C16.0176 15.512 16.335 15.3301 16.683 15.2395C17.031 15.1489 17.3969 15.1528 17.7428 15.251H17.7434L30.2345 18.8016C31.0491 19.0328 31.622 19.7273 31.6942 20.5711C31.7663 21.4146 31.3196 22.1964 30.5567 22.5622L27.8594 23.858L32.0427 28.0415C32.4069 28.4049 32.6074 28.8885 32.6074 29.4029C32.6074 29.9173 32.4071 30.4009 32.0433 30.7641L30.762 32.0454C30.3868 32.42 29.8942 32.6073 29.4014 32.6073C28.9086 32.6073 28.4158 32.4198 28.0406 32.0448L23.8567 27.8605L22.5609 30.5581C22.1945 31.3213 21.4102 31.7681 20.5693 31.6953C19.726 31.6231 19.0318 31.0501 18.8007 30.2363L15.2507 17.7449C15.1524 17.3993 15.1481 17.0337 15.2382 16.6858C15.3284 16.338 15.5098 16.0205 15.7636 15.7662L15.7634 15.7664ZM20.7469 29.6279L22.6422 25.6823C22.7127 25.5355 22.8174 25.4077 22.9474 25.3097C23.0774 25.2117 23.229 25.1463 23.3895 25.1189C23.5501 25.0916 23.7148 25.1031 23.8699 25.1526C24.0251 25.202 24.1661 25.2879 24.2812 25.4031L29.4018 30.5236L30.5221 29.4031L25.4017 24.2825C25.2867 24.1674 25.2008 24.0263 25.1515 23.8712C25.1021 23.7161 25.0906 23.5514 25.1179 23.3909C25.1453 23.2304 25.2106 23.0788 25.3086 22.9488C25.4066 22.8188 25.5342 22.7141 25.6809 22.6435L29.6264 20.7478L17.2202 17.2211L20.7469 29.6279ZM17.186 17.2112L17.4646 16.2313L17.1837 17.211L17.186 17.2112Z" fill="#22B855"/>
</svg>
