<svg width="4698" height="1080" viewBox="0 0 4698 1080" fill="none" xmlns="http://www.w3.org/2000/svg">
<path d="M1471.62 683.712H1011.35C1019.26 806.694 1065.5 850.702 1186.2 850.702C1279.84 850.702 1331.73 822.497 1341.89 766.086H1462.57C1452.43 892.468 1354.28 958.999 1183.94 958.999C977.502 958.999 885 860.831 885 644.165C885 430.899 976.369 333.863 1179.43 333.863C1383.62 333.863 1471.62 423.085 1471.62 648.674V683.712ZM1013.57 576.5H1340.71C1335.07 481.731 1288.81 442.232 1180.51 442.232C1073.4 442.232 1027.14 478.331 1013.62 576.5H1013.57Z" fill="#0D165E"/>
<path d="M1927.63 350.314H2058.23L1899.43 942.548H1676.55L1517.75 350.314H1648.36L1778.96 835.164H1798.21L1927.63 350.314Z" fill="#0D165E"/>
<path d="M2690.98 683.712H2230.69C2238.6 806.694 2284.84 850.702 2405.55 850.702C2499.18 850.702 2551.08 822.497 2561.24 766.086H2681.94C2671.79 892.468 2573.63 958.999 2403.31 958.999C2196.85 958.999 2104.37 860.831 2104.37 644.165C2104.37 430.899 2195.74 333.863 2398.8 333.863C2602.99 333.863 2690.98 423.085 2690.98 648.674V683.712ZM2232.94 576.5H2560.08C2554.44 481.731 2508.17 442.232 2399.88 442.232C2292.75 442.232 2246.48 478.331 2232.94 576.5Z" fill="#0D165E"/>
<path d="M3320.44 569.9V942.548H3191.95V572.144C3191.95 480.683 3151.39 438.886 3069.11 438.886C2975.56 438.886 2928.23 506.649 2928.23 643.285V942.524H2799.74V350.804H2928.23V443.399C2967.66 369.989 3030.79 333.863 3117.57 333.863C3260.71 333.887 3320.44 402.76 3320.44 569.9Z" fill="#0D165E"/>
<path d="M3801.41 459.056H3623.9V745.013C3623.9 782.166 3630.62 809.188 3645.25 826.08C3659.87 842.971 3682.32 850.84 3712.64 850.84C3743.79 850.75 3774.39 842.612 3801.48 827.21V933.085C3773.39 949.929 3739.68 959 3698.24 959C3560.03 959 3496 890.302 3496 745.062V459.056H3406.13V352.099H3496V198.966H3624.09V352.099H3801.6L3801.41 459.056Z" fill="#0D165E"/>
<path d="M3893.88 197.844C3893.88 138.038 3911.94 120 3971.85 120C4033.98 120 4052.06 138.038 4052.06 197.844C4052.06 255.408 4033.98 272.336 3971.85 272.336C3911.94 272.36 3893.88 255.48 3893.88 197.844ZM3908.56 942.548V351.241H4037.38V942.548H3908.56Z" fill="#0D165E"/>
<path d="M4698 569.9V942.548H4569.5V572.144C4569.5 480.683 4528.94 438.886 4446.67 438.886C4353.12 438.886 4305.79 506.649 4305.79 643.285V942.524H4177.3V350.804H4305.79V443.399C4345.24 369.989 4408.35 333.863 4495.13 333.863C4638.27 333.887 4698 402.76 4698 569.9Z" fill="#0D165E"/>
<path d="M676.868 519.739L473.555 723.166L342.501 854.334L278.29 790.08L212.558 724.346C196.593 708.41 183.724 689.647 174.602 669.01C144.64 601.521 157.306 519.506 212.558 464.253C238.842 437.962 272.463 420.251 308.997 413.449C345.532 406.647 383.268 411.073 417.241 426.145L341.775 501.675C279.749 563.749 279.742 664.397 341.775 726.477L520.292 547.824L641.434 426.59C626.098 399.157 607.043 373.979 584.812 351.773C569.167 336.109 552.052 321.989 533.704 309.606C510.39 293.855 485.205 281.072 458.731 271.553C426.087 298.743 384.958 313.63 342.488 313.63C300.017 313.63 258.888 298.743 226.244 271.553C178.832 288.682 135.792 316.089 100.204 351.814C-17.4573 469.518 -31.5065 652.277 58.0978 785.528C70.4454 803.912 84.5446 821.055 100.198 836.716L165.909 902.478L342.501 1079.23L584.832 836.716C670.614 750.855 701.323 630.375 676.868 519.739Z" fill="url(#paint0_linear_11013_17)"/>
<path d="M342.695 262.505C415.066 262.505 473.735 203.791 473.735 131.365C473.735 58.9385 415.066 0.225159 342.695 0.225159C270.324 0.225159 211.655 58.9385 211.655 131.365C211.655 203.791 270.324 262.505 342.695 262.505Z" fill="url(#paint1_linear_11013_17)"/>
<defs>
<linearGradient id="paint0_linear_11013_17" x1="94.4163" y1="1012.39" x2="568.462" y2="214.617" gradientUnits="userSpaceOnUse">
<stop offset="0.18" stop-color="#702CE7"/>
<stop offset="0.82" stop-color="#FF4A97"/>
</linearGradient>
<linearGradient id="paint1_linear_11013_17" x1="202.285" y1="310.306" x2="484.783" y2="-49.1695" gradientUnits="userSpaceOnUse">
<stop offset="0.33" stop-color="#702CE7"/>
<stop offset="0.87" stop-color="#FF4A97"/>
</linearGradient>
</defs>
</svg>
