<svg width="150px" height="40px" viewBox="0 0 155 27.5" fill="none" xmlns="http://www.w3.org/2000/svg"><path width="36" height="42" rx="5" fill="#F6F3FF" d="M3.125 0H19.375A3.125 3.125 0 0 1 22.5 3.125V23.125A3.125 3.125 0 0 1 19.375 26.25H3.125A3.125 3.125 0 0 1 0 23.125V3.125A3.125 3.125 0 0 1 3.125 0z"/><path x="3.375" y="3.5" width="29.25" height="10.5" rx="5.25" fill="#4A3BD6" d="M5.391 2.188H17.109A3.281 3.281 0 0 1 20.391 5.469V5.469A3.281 3.281 0 0 1 17.109 8.75H5.391A3.281 3.281 0 0 1 2.109 5.469V5.469A3.281 3.281 0 0 1 5.391 2.188z"/><path x="3.375" y="15.75" width="29.25" height="10.5" rx="5.25" fill="#6F33EC" d="M5.391 9.844H17.109A3.281 3.281 0 0 1 20.391 13.125V13.125A3.281 3.281 0 0 1 17.109 16.406H5.391A3.281 3.281 0 0 1 2.109 13.125V13.125A3.281 3.281 0 0 1 5.391 9.844z"/><path x="3.375" y="28" width="29.25" height="10.5" rx="5.25" fill="#1AB89C" d="M5.391 17.5H17.109A3.281 3.281 0 0 1 20.391 20.781V20.781A3.281 3.281 0 0 1 17.109 24.063H5.391A3.281 3.281 0 0 1 2.109 20.781V20.781A3.281 3.281 0 0 1 5.391 17.5z"/><path d="M5.274 3.879c0.833 0 1.523 0.703 1.523 1.589S6.107 7.056 5.274 7.056C4.44 7.056 3.75 6.354 3.75 5.468s0.69 -1.589 1.524 -1.589Z" stroke="white" stroke-width="0.46875"/><path cx="8.4375" cy="33.2487" rx="2.8125" ry="2.91667" fill="white" d="M7.031 20.78A1.758 1.823 0 0 1 5.273 22.603A1.758 1.823 0 0 1 3.516 20.78A1.758 1.823 0 0 1 7.031 20.78z"/><path cx="8.4375" cy="20.9987" rx="2.8125" ry="2.91667" fill="white" d="M7.031 13.124A1.758 1.823 0 0 1 5.273 14.947A1.758 1.823 0 0 1 3.516 13.124A1.758 1.823 0 0 1 7.031 13.124z"/><path d="m4.571 13.216 0.439 0.456 0.967 -1.094" stroke="#6F33EC" stroke-width="0.234375" stroke-linecap="round" stroke-linejoin="round"/><path d="M46.759 13.235q0 2.929 -1.11 4.984 -1.102 2.054 -3.008 3.138 -1.898 1.075 -4.266 1.075 -2.386 0 -4.284 -1.084t-2.999 -3.138q-1.102 -2.055 -1.102 -4.975 0 -2.928 1.102 -4.983 1.101 -2.054 2.999 -3.129Q35.989 4.037 38.375 4.037q2.369 0 4.266 1.084 1.906 1.075 3.008 3.129 1.11 2.055 1.11 4.983m-3.837 0q0 -1.897 -0.569 -3.2 -0.559 -1.302 -1.583 -1.975 -1.022 -0.674 -2.395 -0.674t-2.396 0.674q-1.023 0.673 -1.591 1.975 -0.559 1.303 -0.559 3.2t0.559 3.2q0.569 1.302 1.591 1.976 1.023 0.673 2.396 0.673t2.395 -0.673q1.022 -0.673 1.583 -1.976 0.569 -1.303 0.569 -3.2M49.494 27.223V8.759h3.672v2.256h0.166q0.244 -0.542 0.708 -1.102 0.472 -0.569 1.224 -0.944 0.761 -0.385 1.888 -0.385 1.469 0 2.711 0.769 1.241 0.761 1.984 2.3 0.743 1.529 0.743 3.837 0 2.247 -0.726 3.794 -0.717 1.539 -1.958 2.334 -1.233 0.787 -2.763 0.787 -1.084 0 -1.845 -0.359 -0.752 -0.358 -1.232 -0.9 -0.481 -0.551 -0.734 -1.111h-0.114v7.186zm3.646 -11.75q0 1.198 0.332 2.089 0.333 0.892 0.962 1.39 0.629 0.49 1.53 0.49 0.909 0 1.539 -0.498 0.629 -0.507 0.953 -1.399 0.332 -0.9 0.332 -2.072 0 -1.163 -0.323 -2.046 -0.324 -0.883 -0.953 -1.381 -0.63 -0.499 -1.547 -0.498 -0.909 0 -1.539 0.481 -0.621 0.481 -0.953 1.364 -0.332 0.883 -0.332 2.081m19.076 -6.714v2.798h-8.086v-2.797zm-6.251 -3.217h3.724v12.519q0 0.516 0.158 0.805 0.158 0.279 0.437 0.393 0.289 0.114 0.664 0.114 0.263 0 0.524 -0.044 0.263 -0.053 0.403 -0.079l0.586 2.771q-0.279 0.088 -0.787 0.201 -0.507 0.122 -1.232 0.149 -1.346 0.052 -2.361 -0.359 -1.005 -0.411 -1.565 -1.276 -0.559 -0.866 -0.551 -2.186zM74.641 22.188V8.759h3.724V22.188zm1.871 -15.159q-0.831 0 -1.425 -0.551 -0.586 -0.559 -0.586 -1.338 0 -0.769 0.586 -1.321 0.594 -0.559 1.425 -0.559t1.416 0.559q0.594 0.551 0.594 1.321 0 0.778 -0.594 1.338 -0.586 0.55 -1.416 0.55m10.904 15.422q-2.037 0 -3.523 -0.866 -1.478 -0.875 -2.282 -2.431 -0.804 -1.565 -0.804 -3.628 0 -2.081 0.804 -3.637 0.804 -1.564 2.282 -2.43 1.486 -0.875 3.523 -0.875 2.037 0 3.514 0.875 1.486 0.865 2.291 2.43 0.804 1.556 0.804 3.638 0 2.063 -0.804 3.628 -0.804 1.556 -2.291 2.431 -1.478 0.866 -3.514 0.866m0.018 -2.885q0.927 0 1.547 -0.525 0.621 -0.533 0.936 -1.451 0.323 -0.917 0.323 -2.089t-0.323 -2.089q-0.315 -0.917 -0.936 -1.451 -0.621 -0.533 -1.547 -0.533 -0.936 0 -1.574 0.533 -0.629 0.534 -0.953 1.451 -0.314 0.919 -0.314 2.089 0 1.172 0.314 2.089 0.324 0.919 0.953 1.451 0.638 0.525 1.574 0.525m12.737 -5.141V22.188h-3.724V8.759h3.549v2.369h0.157a3.75 3.75 0 0 1 1.495 -1.853q1.049 -0.691 2.544 -0.691 1.399 0 2.439 0.612t1.618 1.749q0.577 1.128 0.577 2.692V22.188h-3.724V14.302q0.008 -1.232 -0.63 -1.924 -0.637 -0.699 -1.757 -0.699 -0.752 0 -1.329 0.324 -0.569 0.324 -0.892 0.944 -0.315 0.613 -0.324 1.478m18.733 -5.665v2.797h-8.087v-2.797zm-6.251 -3.217h3.724v12.519q0 0.516 0.158 0.805 0.158 0.279 0.438 0.393 0.288 0.114 0.664 0.114 0.262 0 0.524 -0.044 0.263 -0.053 0.402 -0.079l0.586 2.771q-0.28 0.088 -0.787 0.201 -0.508 0.122 -1.233 0.149 -1.346 0.052 -2.36 -0.359 -1.006 -0.411 -1.565 -1.276 -0.56 -0.866 -0.551 -2.186zM121.331 22.188V8.759h3.724V22.188zm1.871 -15.159q-0.831 0 -1.425 -0.551 -0.586 -0.559 -0.586 -1.338 0 -0.769 0.586 -1.321 0.594 -0.559 1.425 -0.559t1.416 0.559q0.594 0.551 0.594 1.321 0 0.778 -0.594 1.338 -0.586 0.55 -1.416 0.55m10.904 15.422q-2.063 0 -3.549 -0.875 -1.478 -0.882 -2.272 -2.447 -0.787 -1.565 -0.787 -3.602 0 -2.063 0.796 -3.619 0.804 -1.565 2.281 -2.439 1.478 -0.883 3.515 -0.883 1.757 0 3.077 0.637 1.321 0.639 2.089 1.792 0.769 1.154 0.848 2.711h-3.514q-0.148 -1.006 -0.787 -1.618 -0.629 -0.621 -1.653 -0.621 -0.865 0 -1.512 0.472 -0.639 0.463 -0.997 1.355t-0.359 2.159q0 1.286 0.35 2.186 0.358 0.9 1.006 1.373 0.647 0.473 1.512 0.473 0.639 0 1.146 -0.263a2.219 2.219 0 0 0 0.848 -0.761q0.341 -0.506 0.446 -1.215h3.514q-0.088 1.539 -0.839 2.71 -0.742 1.163 -2.054 1.819 -1.311 0.656 -3.104 0.656m19.555 -9.862 -3.409 0.21a1.75 1.75 0 0 0 -0.376 -0.787 2 2 0 0 0 -0.761 -0.569q-0.463 -0.218 -1.11 -0.218 -0.866 0 -1.46 0.367 -0.594 0.358 -0.594 0.961 0 0.481 0.384 0.831 0.385 0.341 1.294 0.515l2.474 0.498q1.993 0.411 2.973 1.39 0.979 0.98 0.979 2.579 0 1.451 -0.857 2.553t-2.352 1.722q-1.486 0.612 -3.435 0.612 -2.973 0 -4.738 -1.241 -1.757 -1.25 -2.063 -3.4l3.515 -0.21q0.131 0.953 0.857 1.451 0.726 0.49 1.862 0.49 0.979 0 1.582 -0.376 0.612 -0.385 0.621 -0.997 -0.009 -0.516 -0.437 -0.848 -0.428 -0.341 -1.32 -0.515l-2.369 -0.472q-2.002 -0.394 -2.982 -1.434 -0.971 -1.04 -0.971 -2.658 0 -1.42 0.778 -2.448 0.787 -1.031 2.21 -1.591 1.434 -0.56 3.348 -0.559 2.837 0 4.467 1.197 1.635 1.198 1.906 3.262" fill="#303030"/></svg>