<svg width="1257" height="285" viewBox="0 0 1257 285" fill="none" xmlns="http://www.w3.org/2000/svg">
<path d="M98.7624 194.722C96.5896 194.722 94.4168 193.904 92.7802 192.239C89.4787 188.937 89.4787 183.575 92.7802 180.273L174.273 98.7722H126.98C122.296 98.7722 118.515 94.9906 118.515 90.306C118.515 85.6214 122.296 81.8398 126.98 81.8398H194.703C195.86 81.8398 196.932 82.0656 197.948 82.4889C198.964 82.9122 199.895 83.5048 200.685 84.3232C201.503 85.1416 202.096 86.0729 202.519 87.0606C202.943 88.0483 203.168 89.1489 203.168 90.306V158.035C203.168 162.72 199.387 166.502 194.703 166.502C190.019 166.502 186.238 162.72 186.238 158.035V110.738L104.745 192.239C103.08 193.904 100.935 194.722 98.7624 194.722Z" fill="#3842FF"/>
<path d="M281.162 19.2465C277.748 12.5582 272.415 7.22448 265.755 3.838C258.221 0 250.01 0 233.644 0H131.777C115.439 0 107.228 0 99.6653 3.838C92.9777 7.2527 87.6446 12.5582 84.2584 19.2465C80.4208 26.7814 80.4208 34.9936 80.4208 51.3615V80.4288H51.3564C35.0183 80.4288 26.8069 80.4288 19.2446 84.2668C12.5569 87.6815 7.22376 93.0152 3.83762 99.6752C0 107.21 0 115.422 0 131.79V233.667C0 250.006 0 258.219 3.83762 265.754C7.25198 272.442 12.5569 277.776 19.2446 281.162C26.7787 285 34.9901 285 51.3564 285H153.223C169.561 285 177.772 285 185.335 281.162C192.022 277.747 197.355 272.414 200.742 265.754C204.579 258.219 204.579 250.006 204.579 233.638V204.571H233.644C249.982 204.571 258.193 204.571 265.755 200.733C272.443 197.319 277.776 191.985 281.162 185.325C285 177.79 285 169.578 285 153.238V51.3615C285 35.0218 285 26.8096 281.162 19.2465ZM268.069 153.238C268.069 166.445 268.069 173.726 266.066 177.649C264.288 181.12 261.523 183.886 258.052 185.663C254.13 187.667 246.85 187.667 233.644 187.667H131.777C118.571 187.667 111.291 187.667 107.369 185.663C103.898 183.886 101.133 181.12 99.3549 177.649C97.3515 173.726 97.3515 166.445 97.3515 153.238V51.3615C97.3515 38.1543 97.3515 30.8734 99.3549 26.9507C101.133 23.4796 103.898 20.7139 107.369 18.936C111.291 16.9324 118.571 16.9324 131.777 16.9324H233.644C246.85 16.9324 254.13 16.9324 258.052 18.936C261.523 20.7139 264.288 23.4796 266.066 26.9507C268.069 30.8734 268.069 38.1543 268.069 51.3615V153.238Z" fill="#3842FF"/>
<path d="M356.25 261.25V61.0714H390.744V78.8839C400.169 65.501 414.494 58.8095 433.72 58.8095C454.077 58.8095 470.193 65.5952 482.068 79.1667C493.943 92.5496 499.881 110.268 499.881 132.321C499.881 154.187 493.566 171.905 480.938 185.476C468.497 199.048 451.91 205.833 431.176 205.833C422.505 205.833 414.588 204.231 407.426 201.027C400.263 197.822 394.702 193.487 390.744 188.021V261.25H356.25ZM427.217 175.863C438.715 175.863 447.951 171.905 454.926 163.988C461.9 156.071 465.387 145.516 465.387 132.321C465.387 119.127 461.9 108.571 454.926 100.655C447.951 92.7381 438.715 88.7798 427.217 88.7798C415.531 88.7798 406.106 92.7381 398.943 100.655C391.969 108.571 388.482 119.127 388.482 132.321C388.482 145.516 391.969 156.071 398.943 163.988C406.106 171.905 415.531 175.863 427.217 175.863Z" fill="#1D1F42"/>
<path d="M641.153 185.193C627.204 198.953 609.392 205.833 587.715 205.833C566.039 205.833 548.132 198.953 533.995 185.193C520.047 171.245 513.072 153.621 513.072 132.321C513.072 111.022 520.047 93.4921 533.995 79.7321C548.132 65.7837 566.039 58.8095 587.715 58.8095C609.392 58.8095 627.204 65.7837 641.153 79.7321C655.101 93.4921 662.075 111.022 662.075 132.321C662.075 153.621 655.101 171.245 641.153 185.193ZM587.715 175.863C599.402 175.863 608.826 171.811 615.989 163.705C623.34 155.6 627.016 145.139 627.016 132.321C627.016 119.504 623.34 109.043 615.989 100.938C608.826 92.8323 599.402 88.7798 587.715 88.7798C575.84 88.7798 566.227 92.8323 558.876 100.938C551.713 109.043 548.132 119.504 548.132 132.321C548.132 145.139 551.713 155.6 558.876 163.705C566.227 171.811 575.84 175.863 587.715 175.863Z" fill="#1D1F42"/>
<path d="M679.042 261.25V61.0714H713.536V78.8839C722.961 65.501 737.286 58.8095 756.512 58.8095C776.869 58.8095 792.985 65.5952 804.86 79.1667C816.735 92.5496 822.673 110.268 822.673 132.321C822.673 154.187 816.358 171.905 803.729 185.476C791.289 199.048 774.702 205.833 753.967 205.833C745.297 205.833 737.38 204.231 730.217 201.027C723.055 197.822 717.494 193.487 713.536 188.021V261.25H679.042ZM750.009 175.863C761.507 175.863 770.743 171.905 777.717 163.988C784.692 156.071 788.179 145.516 788.179 132.321C788.179 119.127 784.692 108.571 777.717 100.655C770.743 92.7381 761.507 88.7798 750.009 88.7798C738.323 88.7798 728.898 92.7381 721.735 100.655C714.761 108.571 711.274 119.127 711.274 132.321C711.274 145.516 714.761 156.071 721.735 163.988C728.898 171.905 738.323 175.863 750.009 175.863Z" fill="#1D1F42"/>
<path d="M852.605 18.0952H887.382V61.0714H926.966V90.1935H887.382V152.396C887.382 166.91 894.262 174.167 908.022 174.167H926.966V203.571H904.064C888.23 203.571 875.696 199.236 866.46 190.565C857.224 181.706 852.605 169.454 852.605 153.81V90.1935H824.614V61.0714H852.605V18.0952Z" fill="#1D1F42"/>
<path d="M939.214 0H976.535V38.7351H939.214V0ZM940.628 203.571V61.0714H975.404V203.571H940.628Z" fill="#1D1F42"/>
<path d="M1062.88 205.833C1041.21 205.833 1023.68 198.859 1010.29 184.911C997.099 170.774 990.502 153.244 990.502 132.321C990.502 111.399 997.099 93.9633 1010.29 80.0149C1023.68 65.878 1041.21 58.8095 1062.88 58.8095C1081.17 58.8095 1096.72 63.8046 1109.53 73.7946C1122.35 83.7847 1129.52 96.8849 1131.02 113.095H1096.53C1095.21 106.121 1091.44 100.372 1085.22 95.8482C1079.19 91.1359 1072.02 88.7798 1063.73 88.7798C1052.04 88.7798 1042.9 92.8323 1036.31 100.938C1029.9 109.043 1026.69 119.504 1026.69 132.321C1026.69 145.139 1029.99 155.6 1036.59 163.705C1043.19 171.811 1052.42 175.863 1064.3 175.863C1072.4 175.863 1079.38 173.79 1085.22 169.643C1091.25 165.308 1095.12 159.559 1096.81 152.396H1131.87C1129.61 168.041 1122.07 180.858 1109.25 190.848C1096.62 200.838 1081.17 205.833 1062.88 205.833Z" fill="#1D1F42"/>
<path d="M1201.11 205.833C1183.77 205.833 1169.72 201.404 1158.98 192.545C1148.42 183.497 1142.77 171.339 1142.01 156.071H1173.68C1174.43 162.857 1177.26 168.229 1182.16 172.188C1187.06 176.146 1193.38 178.125 1201.11 178.125C1207.7 178.125 1213.08 176.711 1217.22 173.884C1221.56 170.868 1223.73 167.192 1223.73 162.857C1223.73 157.956 1221.75 154.187 1217.79 151.548C1214.02 148.72 1209.21 146.93 1203.37 146.176C1197.71 145.422 1191.49 144.291 1184.71 142.783C1177.92 141.086 1171.61 139.107 1165.76 136.845C1160.11 134.583 1155.3 130.437 1151.34 124.405C1147.57 118.373 1145.69 110.645 1145.69 101.22C1145.69 88.7798 1150.5 78.6012 1160.11 70.6845C1169.91 62.7679 1182.16 58.8095 1196.87 58.8095C1213.45 58.8095 1227.02 63.0506 1237.58 71.5327C1248.14 79.8264 1253.79 90.9474 1254.54 104.896H1222.88C1221.93 98.6756 1219.01 93.7748 1214.11 90.1935C1209.21 86.6121 1203.75 84.8214 1197.71 84.8214C1191.49 84.8214 1186.5 86.2351 1182.73 89.0625C1178.96 91.7014 1177.07 95.377 1177.07 100.089C1177.07 104.236 1178.49 107.44 1181.32 109.702C1184.33 111.964 1188.1 113.566 1192.62 114.509C1197.34 115.451 1202.52 116.205 1208.18 116.771C1213.83 117.336 1219.48 118.373 1225.14 119.881C1230.79 121.389 1235.88 123.557 1240.41 126.384C1245.12 129.211 1248.89 133.641 1251.72 139.673C1254.73 145.516 1256.24 152.773 1256.24 161.443C1256.24 174.826 1251.15 185.57 1240.97 193.676C1230.98 201.781 1217.69 205.833 1201.11 205.833Z" fill="#1D1F42"/>
</svg>
