<svg width="117" height="32" viewBox="0 0 117 32" fill="none" xmlns="http://www.w3.org/2000/svg">
<path d="M50.8365 19.7171L48.146 10.2026H45.5568L42.8663 19.7171L40.4614 10.2026H37.1074L40.9589 23.796H44.5801L46.8468 15.7766L49.1319 23.796H52.753L56.6046 10.2026H53.2506L50.8365 19.7171Z" fill="black"/>
<path d="M64.0221 10.2124H58.0605V12.1134V13.1193V16.3769V21.2956V23.7965H61.2486V21.2956V19.5238H64.0221C65.395 19.5238 66.556 19.0716 67.4958 18.1672C68.4357 17.2628 68.9056 16.1554 68.9056 14.8635C68.9056 13.5715 68.4357 12.4826 67.4958 11.569C66.556 10.6554 65.4042 10.2124 64.0221 10.2124ZM64.9067 16.1185C64.363 16.2939 63.8286 16.3862 63.3034 16.3862H61.2486V13.1286H64.0221C64.5105 13.1286 64.9159 13.2947 65.2384 13.6269C65.5609 13.9591 65.7175 14.3744 65.7175 14.8727C65.7175 15.5187 65.4503 15.9432 64.9067 16.1185Z" fill="black"/>
<path d="M72.3164 12.159C71.0172 13.4602 70.3722 15.0752 70.3722 17.0039C70.3722 18.9234 71.0264 20.5384 72.3164 21.8396C73.6156 23.1408 75.228 23.796 77.1446 23.796H82.7191V20.806H77.1446C74.9516 20.806 73.7169 19.5417 73.4313 17.0039C73.4313 14.6784 74.666 13.4049 77.1446 13.2018H82.7191V10.2026H77.1446C75.228 10.2026 73.6156 10.8578 72.3164 12.159Z" fill="black"/>
<path d="M91.9031 14.7522C91.2581 13.9586 90.2722 13.5618 88.9454 13.5618C87.6369 13.5618 86.522 14.0509 85.5822 15.0383C84.6424 16.0257 84.1816 17.2439 84.1816 18.6927C84.1816 20.1323 84.6516 21.3505 85.5822 22.3379C86.5128 23.3253 87.6369 23.8144 88.9454 23.8144C90.2814 23.8144 91.2673 23.4176 91.9031 22.6332V23.796H94.8977V13.5618H91.9031V14.7522ZM89.5351 21.0552C87.9594 20.9352 87.167 20.1416 87.167 18.6927C87.3697 17.1147 88.1529 16.321 89.5351 16.321C91.1107 16.441 91.9031 17.2346 91.9031 18.6927C91.7004 20.2615 90.9172 21.0552 89.5351 21.0552Z" fill="black"/>
<path d="M97.6914 11.8549V13.839H96.3553V16.6352H97.6914V23.7964H100.686V16.6352H102.538V13.839H100.686V11.8549C100.787 11.0244 101.266 10.6091 102.123 10.6091C102.252 10.6091 102.391 10.6183 102.529 10.6368V7.84058H102.289C99.2486 7.84058 97.7098 9.17868 97.6914 11.8549Z" fill="black"/>
<path d="M113.1 18.693C113.1 17.2257 112.621 15.9984 111.653 15.0202C110.695 14.042 109.488 13.5529 108.032 13.5529C106.456 13.5529 105.185 14.042 104.199 15.0294C103.213 16.0168 102.725 17.235 102.725 18.6838C103.001 22.0983 104.835 23.8055 108.253 23.8055C110.142 23.8055 111.589 23.1411 112.593 21.803L110.197 20.4649C109.746 20.954 109.11 21.1939 108.29 21.1939C107.193 21.1939 106.392 20.7417 105.894 19.8374H112.971C113.054 19.4774 113.1 19.0899 113.1 18.693ZM105.839 17.6779C106.152 16.6536 106.871 16.146 108.014 16.146C108.465 16.146 108.88 16.266 109.276 16.4967C109.672 16.7274 109.958 17.1242 110.124 17.6779H105.839Z" fill="black"/>
<path d="M109.016 11.4643C109.016 11.4643 112.923 13.0331 112.73 9.11108C112.73 5.97345 113.706 4.60766 116.249 4.22007C116.249 4.22007 109.8 2.65125 110.776 8.91729C110.979 11.6581 109.016 11.4643 109.016 11.4643Z" fill="#FFB119"/>
<path d="M108.233 11.2705C108.233 11.2705 110.776 11.4643 109.799 9.12032C109.016 7.16391 109.412 6.3795 110.776 5.59509C110.776 5.59509 106.869 5.98268 108.629 9.50791C109.412 10.8737 108.233 11.2705 108.233 11.2705Z" fill="#F8272D"/>
<rect width="31.4772" height="31.5" rx="15.7386" fill="#F45925"/>
<path d="M16.0676 12.6825C16.9155 12.6825 17.6029 11.9946 17.6029 11.1461C17.6029 10.2976 16.9155 9.60974 16.0676 9.60974C15.2197 9.60974 14.5323 10.2976 14.5323 11.1461C14.5323 11.9946 15.2197 12.6825 16.0676 12.6825Z" fill="white"/>
<path d="M27.5026 11.2698C27.4749 10.4243 27.1809 9.81574 26.6751 9.55555C26.5008 9.46588 26.3049 9.42031 26.0927 9.42031C25.1104 9.42031 23.8606 10.4118 23.1847 11.7272C22.8099 12.4563 22.7337 13.0553 22.9521 13.5583C23.0586 13.8035 23.2337 14.0216 23.4878 14.2242C23.4782 14.2404 23.4684 14.257 23.4591 14.2737L22.9886 15.0239C22.3839 15.986 20.7708 18.5689 20.1627 19.5455C20.1206 19.6107 20.0662 19.6991 20.0084 19.7929C19.9218 19.9338 19.8238 20.0936 19.7599 20.1859L19.7572 20.1901C19.582 20.4608 19.2627 20.6294 18.9241 20.6294C18.7814 20.6294 18.6404 20.5982 18.5167 20.5397L18.5121 20.5375C18.3645 20.4733 18.2514 20.3523 18.1605 20.2408C18.1547 20.2312 18.1483 20.221 18.1422 20.2102C18.1241 20.1795 18.1035 20.1452 18.0837 20.1161C17.8986 19.7751 17.6494 19.3184 17.3416 18.7573C17.5233 18.4545 17.7191 18.1284 17.9231 17.7891C18.8154 16.3049 19.8268 14.6223 20.4939 13.4409L20.4973 13.4341C21.2614 11.9109 21.1767 10.1239 20.2709 8.6547C19.3619 7.18032 17.7999 6.30029 16.0918 6.30029H16.0664C14.2398 6.30127 12.6232 7.26239 11.7429 8.87054C10.8645 10.4748 10.9249 12.3505 11.904 13.8883C12.7319 15.2934 13.7555 17.0061 14.7909 18.7204L14.0542 20.0681C14.0454 20.0842 14.0383 20.0975 14.0312 20.1085H14.0275L13.9827 20.1854C13.8302 20.4451 13.5291 20.6063 13.1968 20.6063C13.046 20.6063 12.8979 20.572 12.7672 20.5069C12.6137 20.4321 12.4639 20.2878 12.3468 20.1031C12.2413 19.9297 11.7661 19.1697 11.2628 18.3654C10.7604 17.5625 10.2779 16.7009 10.1471 16.4872L8.77811 14.1781C8.99355 13.9361 9.07361 13.7384 9.15978 13.4162C9.30496 12.8733 9.23005 12.3061 8.94924 11.8193L7.51265 9.33285L6.8039 9.74297L8.04806 11.8975C8.08846 11.9673 8.06447 12.0567 7.99469 12.0969C7.97192 12.1099 7.94769 12.1165 7.92174 12.1165C7.86984 12.1165 7.82112 12.0888 7.79492 12.0435L6.55075 9.88899L5.81801 10.3126L7.06242 12.4676C7.10257 12.5371 7.07858 12.6268 7.00881 12.667C6.98629 12.68 6.9618 12.6866 6.93634 12.6866C6.88395 12.6866 6.83572 12.6587 6.80953 12.6136L5.56536 10.4586L4.83262 10.8824L6.07679 13.0369C6.09637 13.0705 6.10176 13.1102 6.09147 13.1479C6.08144 13.1857 6.0572 13.217 6.02366 13.2364C6.00114 13.2494 5.97665 13.256 5.9507 13.256C5.8988 13.256 5.85008 13.2283 5.82438 13.183L4.57997 11.0285L3.87122 11.4383L5.30732 13.9258C5.68189 14.5745 6.38036 14.9776 7.12999 14.9776C7.2453 14.9776 7.35988 14.968 7.47323 14.9491C7.47347 14.9501 7.47396 14.9506 7.47421 14.9516L7.47641 14.9565L7.87596 15.7138C7.88183 15.725 7.88771 15.7363 7.89432 15.7471H7.89358C8.32104 16.5617 9.02807 17.8893 9.65187 19.0607C10.0539 19.8157 10.4336 20.5292 10.709 21.049C10.8419 21.295 11.0008 21.5175 11.1808 21.7105C11.287 21.6804 11.3964 21.6571 11.5091 21.6422C11.6097 21.6285 11.7145 21.6213 11.8195 21.6213C12.4609 21.6213 13.0806 21.8904 13.5195 22.3595C13.5898 22.4342 13.6549 22.5131 13.7139 22.5955C14.4704 22.4926 15.1662 22.1104 15.6286 21.529L15.6311 21.5258C15.7199 21.4087 15.8203 21.2627 15.9014 21.1338C15.9332 21.0819 15.9968 20.977 16.0788 20.8418C16.1371 20.9371 16.2532 21.1269 16.2532 21.1269C16.3677 21.3058 16.4921 21.4932 16.6378 21.6449C17.0652 22.1307 17.6582 22.4504 18.3126 22.5577C18.3713 22.4791 18.4355 22.4039 18.505 22.3321C18.9484 21.8737 19.5428 21.6213 20.1788 21.6213C20.3245 21.6213 20.4675 21.6348 20.6036 21.661C20.7066 21.6801 20.8073 21.7056 20.9045 21.7377C21.0374 21.601 21.1561 21.4491 21.2585 21.2842C21.2707 21.2639 21.2859 21.2404 21.3018 21.2154C21.3395 21.1561 21.3823 21.0895 21.409 21.0334C21.6663 20.5483 22.0174 19.8887 22.3893 19.1905C23.041 17.9675 23.7796 16.5806 24.222 15.7363L24.6362 14.9533C24.6556 14.9202 24.6742 14.8871 24.6916 14.8536C24.8979 14.9165 25.0891 14.9472 25.2728 14.9472C25.9504 14.9472 26.4959 14.5263 26.9409 13.6597C27.3234 12.9152 27.528 12.0442 27.5026 11.2698ZM16.0578 16.4255C15.7677 15.8997 15.4945 15.4065 15.2778 15.0153L13.9717 12.6895C13.8774 12.5259 13.7599 12.3095 13.6855 12.0861C13.4231 11.3433 13.5489 10.5003 14.0214 9.83117C14.4922 9.16527 15.2406 8.76765 16.023 8.76765C16.0367 8.76765 16.0504 8.76789 16.0642 8.76789H16.0952C16.9435 8.76789 17.725 9.21011 18.1862 9.95073C18.6489 10.694 18.7016 11.5937 18.328 12.3588C17.9661 13.0132 17.5034 13.84 17.0133 14.7149C16.6953 15.284 16.3677 15.8696 16.0578 16.4255Z" fill="white"/>
<path d="M13.1534 22.7005C12.8192 22.3431 12.3442 22.1201 11.8172 22.1201C11.7342 22.1201 11.6529 22.1255 11.5723 22.1365C10.6763 22.2563 9.98321 23.0266 9.98321 23.9551C9.98321 24.5586 10.276 25.0949 10.727 25.4298L7.05176 25.5846L11.5887 25.7757C11.6636 25.785 11.7398 25.7904 11.8174 25.7904C12.8285 25.7904 13.6513 24.967 13.6513 23.9551C13.6511 23.47 13.4618 23.0286 13.1534 22.7005ZM11.8172 24.7359C11.387 24.7359 11.0372 24.3858 11.0372 23.9554C11.0372 23.5249 11.387 23.1748 11.8172 23.1748C12.2473 23.1748 12.5971 23.5249 12.5971 23.9554C12.5971 24.3858 12.2473 24.7359 11.8172 24.7359Z" fill="white"/>
<path d="M20.5092 22.1515C20.4015 22.1304 20.2901 22.1204 20.1767 22.1204C19.6606 22.1204 19.194 22.3352 18.8608 22.6797C18.5411 23.0097 18.344 23.4593 18.344 23.9556C18.344 24.5608 18.638 25.0983 19.0907 25.4327L15.4757 25.5848L19.9167 25.772C20.0017 25.7843 20.0886 25.7909 20.177 25.7909C21.1888 25.7909 22.0109 24.9675 22.0109 23.9556C22.0106 23.0572 21.3631 22.3078 20.5092 22.1515ZM20.1767 24.7362C19.7466 24.7362 19.3967 24.3861 19.3967 23.9556C19.3967 23.5252 19.7466 23.1751 20.1767 23.1751C20.6069 23.1751 20.9577 23.5252 20.9577 23.9556C20.9577 24.3861 20.6069 24.7362 20.1767 24.7362Z" fill="white"/>
</svg>
